<?xml version="1.0" encoding="UTF-8"?>
<svg width="258px" height="310px" viewBox="0 0 258 310" version="1.1" xmlns="http://www.w3.org/2000/svg" xmlns:xlink="http://www.w3.org/1999/xlink">
    <!-- Generator: Sketch 63.1 (92452) - https://sketch.com -->
    <title>one.com.big.dot</title>
    <desc>Created with Sketch.</desc>
    <g id="Page-1" stroke="none" stroke-width="1" fill="none" fill-rule="evenodd">
        <g id="one.com.big.dot">
            <path d="M243.9995,278 C239.8185,278 236.0645,279.833 233.4995,282.739 C230.9345,279.833 227.1815,278 222.9995,278 C215.2685,278 208.9995,284.268 208.9995,292 L208.9995,293 L208.9995,310 L215.9995,310 L215.9995,292 L216.0045,291.759 C216.1315,288.005 219.2145,285 222.9995,285 C226.8655,285 229.9995,288.134 229.9995,292 L229.9995,310 L236.9995,310 L236.9995,292 L237.0045,291.759 C237.1315,288.005 240.2145,285 243.9995,285 C247.8655,285 250.9995,288.134 250.9995,292 L250.9995,310 L257.9995,310 L257.9995,292 C257.9995,284.268 251.7315,278 243.9995,278" id="M" fill="#3C3C3C"></path>
            <path d="M185.9995,303 C181.0295,303 176.9995,298.971 176.9995,294 C176.9995,289.029 181.0295,285 185.9995,285 C190.9705,285 194.9995,289.029 194.9995,294 C194.9995,298.971 190.9705,303 185.9995,303 M185.9995,278 C177.1635,278 169.9995,285.164 169.9995,294 C169.9995,302.836 177.1635,310 185.9995,310 C194.8365,310 201.9995,302.836 201.9995,294 C201.9995,285.164 194.8365,278 185.9995,278" id="O" fill="#3C3C3C"></path>
            <path d="M152.0132,285 C154.5832,285 156.8962,286.083 158.5352,287.81 L163.4862,282.86 C160.5772,279.867 156.5162,278 152.0132,278 C143.1772,278 136.0132,285.164 136.0132,294 C136.0132,302.836 143.1772,310 152.0132,310 C156.5162,310 160.5772,308.133 163.4862,305.14 L158.5352,300.19 C156.8962,301.917 154.5832,303 152.0132,303 C147.0422,303 143.0132,298.971 143.0132,294 C143.0132,289.029 147.0422,285 152.0132,285" id="C" fill="#3C3C3C"></path>
            <path d="M123,298 C126.313,298 129,300.687 129,304 C129,307.314 126.313,310 123,310 C119.687,310 117,307.314 117,304 C117,300.687 119.687,298 123,298" id="dot" fill="#76B82A"></path>
            <path d="M85.5117,291.0005 C86.7477,287.5045 90.0807,285.0005 93.9997,285.0005 C97.9187,285.0005 101.2527,287.5045 102.4877,291.0005 L85.5117,291.0005 Z M109.9997,294.0005 C109.9997,285.1635 102.8367,277.9995 93.9997,277.9995 C85.1637,277.9995 77.9997,285.1635 77.9997,294.0005 C77.9997,302.8365 85.1637,310.0005 93.9997,310.0005 C100.5217,310.0005 106.1327,306.0975 108.6247,300.5005 L100.2247,300.5005 C98.6077,302.0485 96.4147,303.0005 93.9997,303.0005 C89.8967,303.0005 86.4357,300.2545 85.3517,296.5005 L109.8057,296.5005 C109.9337,295.6865 109.9997,294.8505 109.9997,294.0005 L109.9997,294.0005 Z" id="E" fill="#3C3C3C"></path>
            <path d="M55,278 C46.164,278 39,285.164 39,294 L39,310 L46,310 L46,307.23 C46,307.231 46,307.231 46.001,307.231 L46,294 L46.004,293.735 C46.144,288.887 50.118,285 55,285 C59.971,285 64,289.029 64,294 L64,307.23 L64.001,307.23 L64,310 L71,310 L71,294 L70.997,293.685 C70.829,284.994 63.731,278 55,278" id="N" fill="#3C3C3C"></path>
            <path d="M16,303 C11.029,303 7,298.971 7,294 C7,289.029 11.029,285 16,285 C20.971,285 25,289.029 25,294 C25,298.971 20.971,303 16,303 M16,278 C7.164,278 0,285.164 0,294 C0,302.836 7.164,310 16,310 C24.836,310 32,302.836 32,294 C32,285.164 24.836,278 16,278" id="O" fill="#3C3C3C"></path>
            <path d="M129.0049,0 C200.2499,0 258.0049,57.755 258.0049,129 C258.0049,200.245 200.2499,258 129.0049,258 C57.7599,258 0.0049,200.245 0.0049,129 C0.0049,57.755 57.7599,0 129.0049,0" id="big-dot" fill="#76B82A"></path>
        </g>
    </g>
</svg>